<svg width="512" height="512" viewBox="0 0 512 512" fill="currentColor" xmlns="http://www.w3.org/2000/svg">
<path d="M182.399 190.316H192.608L204.179 191.678L217.111 195.082L230.043 200.53L234.807 203.253L234.127 205.977L227.32 214.829L221.195 225.043L215.75 236.619L213.027 242.067L202.137 237.3L192.608 235.257H182.399L171.508 237.981L163.341 242.067L157.215 246.833L152.451 251.6L147.006 260.452L143.602 269.985L142.922 273.39V287.008L144.964 295.861L149.728 305.394L155.173 312.203L161.299 317.65L171.508 323.098L178.995 325.141L183.76 325.822H191.247L199.414 324.46L208.263 321.055L215.75 316.289L221.875 310.841L228.001 301.308L231.404 291.094L234.127 274.752L236.849 256.366L240.252 245.471L245.697 234.576L251.143 226.405L257.268 218.915L263.394 212.787L272.242 205.977L282.452 199.849L296.064 194.401L306.954 191.678L318.525 190.316H328.735L343.028 192.358L354.599 195.763L364.128 199.849L374.337 205.977L381.824 212.106L388.63 218.234L396.117 227.086L401.563 235.938L407.008 246.833L410.411 257.047L413.133 272.028V289.051L409.73 306.075L405.646 316.97L400.882 326.503L394.756 335.355L386.589 344.888L379.782 351.016L370.934 357.145L358.002 363.954L345.751 368.04L340.986 369.402L343.709 380.296L345.07 391.191V404.129L343.028 418.429L339.625 429.324L334.86 440.219L328.054 451.114L319.887 460.647L311.038 468.818L300.829 475.627L289.939 481.075L278.368 485.16L263.394 487.884H247.059L230.043 484.479L217.111 479.713L206.221 473.585L198.053 467.456L189.886 459.966L184.44 453.837L177.634 443.623L172.189 432.728L168.786 423.876L166.063 410.939L165.383 404.81V395.277L182.399 396.639H193.289L209.624 395.277L210.305 404.81L213.027 414.343L217.791 423.876L225.278 432.048L232.765 437.495L240.933 440.9L249.781 442.942H259.991L269.52 440.9L275.645 438.176L282.452 434.09L289.258 427.962L295.384 419.11L298.787 410.258L300.148 403.448V392.553L298.106 383.02L292.661 372.125L287.216 365.316L280.41 359.868L276.326 357.826L277.007 355.102L284.494 344.888L291.981 331.95L297.426 319.012L300.148 319.693L307.635 323.098L314.441 325.141L319.206 325.822H327.373L336.902 323.779L345.07 320.374L351.196 316.289L357.321 310.841L362.086 304.032L365.489 297.222L368.211 286.327V274.752L366.85 267.261L363.447 259.09L357.321 250.238L352.557 245.471L345.07 240.705L337.583 237.3L328.735 235.257H317.845L306.954 237.981L296.745 243.429L288.577 250.919L282.452 260.452L279.049 271.347L274.965 300.627L270.881 314.927L265.436 326.503L257.268 338.079L249.781 346.25L242.294 352.378L232.085 359.187L219.153 365.316L203.498 369.402L198.734 370.082H176.953L165.383 368.04L153.131 363.954L142.241 358.507L134.074 353.059L124.545 344.888L117.058 336.717L110.251 326.503L104.806 315.608L100.723 304.032L98 289.732V271.347L101.403 254.324L105.487 243.429L110.932 233.215L117.738 223.681L125.225 215.51L132.032 209.382L142.241 202.572L153.131 197.125L167.425 192.358L182.399 190.316Z" fill="#FFF"/>
<path d="M188.55 25H198.071L218.473 28.4096L229.354 31.8193L240.915 36.5928L251.796 42.7301L260.636 49.5494L268.797 57.0506L276.278 65.9157L281.718 74.7807L287.159 85.6916L290.559 95.9205L292.599 105.467L293.279 110.923V132.063L291.239 144.337L288.519 154.566L285.799 162.067H284.439L281.038 149.111L276.278 135.472L268.117 117.742L262.677 108.195L255.876 97.9663L249.756 89.7831L242.275 80.9181L230.034 68.6434L218.473 59.7783L213.032 56.3687L214.392 59.7783L225.273 77.5084L233.434 91.147L240.235 103.422L248.395 119.106L255.876 136.154L261.997 154.566L265.397 171.614V178.434H259.956L246.355 175.706L232.074 170.933L220.513 165.477L210.312 158.658L202.831 152.52L193.991 143.655L186.51 133.427L179.709 120.47L175.629 108.195L173.589 98.6482L172.909 93.1928V73.4169L174.949 60.4602L177.669 50.2313L180.389 42.0482L186.51 28.4096L188.55 25Z" fill="#FFF"/>
</svg>
